<svg xmlns="http://www.w3.org/2000/svg" viewBox="0 0 1327.1 1844.2">
  <defs>
    <style>
      .cls-1 {
        fill: #17bae0;
      }

      .cls-2 {
        fill: #1691a5;
      }

      .cls-3 {
        fill: #fff;
      }
    </style>
  </defs>
  <title>TT17_logo_web</title>
  <g id="Layer_2" data-name="Layer 2">
    <g id="Layer_2-2" data-name="Layer 2">
      <g>
        <g id="Logo">
          <g>
            <g>
              <path class="cls-1" d="M841,438.5"/>
              <path class="cls-1" d="M978,498.1c2.9-.8,5.7-1.7,8.6-2.2,38.1-6.2,75-15.9,110.8-30.7,10.3-4.3,23.5-3,35.2-2.2,9.4.7,14.4,9.1,10.3,17.6s-10.6,20.2-18.9,26.2c-11.9,8.5-26,15.6-40.2,19-25.9,6.2-52.4,9.6-78.8,13.5-6.7,1-13.8-.4-20.7-.8C983.9,537.5,978.3,499.5,978,498.1ZM1125,477.8c-6.6,16.6-19.6,26.1-35,33C1114.2,512.4,1130,498.1,1125,477.8Z"/>
              <path class="cls-1" d="M985.2,549.5c11-1.1,22.1-2.5,33.1-3.4,33.4-2.9,66.4-7.6,97.7-20.6,12.5-5.2,24.5-1,35.8,4.1,6.9,3.1,7,9.6,4,15.5-6.7,13.2-16.7,23.9-30.8,28.6-32.5,10.8-66.1,12.7-100,9.1-9-1-18-2-26.9-3.4-3.6-.6-7.1-2.3-10.6-3.5C987.7,574.6,985.2,550.5,985.2,549.5Zm157.7-8.7L1139,539c-4.6,21.7-23.6,24.5-39.1,32,16.7.8,30.9-4.3,40.7-17.9C1142.8,550,1142.2,545,1142.9,540.8Z"/>
              <path class="cls-1" d="M959.9,619.6c17.4,6.5,35.1,12.3,52.1,19.8,14.2,6.3,28.8,12.9,40.7,22.5,7.5,6.1,11.4,17.5,15.2,27.2s-2.7,15.8-10,19.6-15.7,4.3-21.4-2.4c-18.5-21.6-43.2-34.2-66.6-48.9-9.4-5.9-17.8-13.4-26.6-20.2C943.7,636.3,959.5,620.3,959.9,619.6Z"/>
              <path class="cls-1" d="M984.5,586.8c8.3.9,16.6,2.2,24.9,2.7,22.7,1.2,45.4,1.4,68,3.4,11,1,22.1,4.4,32.5,8.2,8.2,3,10.2,12.3,4.2,18.8-4.3,4.7-10.2,9.1-16.2,10.9a108.9,108.9,0,0,1-57.5,1.8c-24-5.8-47.8-12.4-71.7-18.9-4.6-1.3-8.7-3.9-13.1-5.8C956,606.9,984.3,588,984.5,586.8Zm122.4,28.9-51.7,10.1C1080.7,632.7,1102.6,628,1106.9,615.6Z"/>
              <path class="cls-1" d="M931.2,640.9l12.9,8.5c17.9,12.1,35.7,24.5,53.8,36.4,12.3,8.1,20.3,18.4,19.9,33.6-.3,13.2-10.4,20.6-23.5,19.5s-22.6-7-30.6-18.4c-12.6-18-27.7-34.2-41.7-51.2-4.2-5.1-8.2-10.4-12.3-15.6C910.3,653,930.7,641.5,931.2,640.9Zm46.9,84.3c7.9,7.7,17.7,9.3,25.8,4.2s8.6-9.3,6.3-15.8C1005,727.2,1005,727.2,978.1,725.2Z"/>
              <path class="cls-1" d="M902.3,664.8c23.6,18,42.6,39.5,54.4,66.6,3.4,7.9,2.8,15-4.1,20.8s-14.4,8.8-23.9,5.5-17.3-9.8-19.3-21.6c-4.2-25.3-14.3-48.4-27.2-70.9C886.1,666.2,902.6,663.8,902.3,664.8Zm17.3,78c7,11.3,18.9,11.8,28.2.8Z"/>
              <path class="cls-1" d="M853.1,680.6c5.7,8.6,22.3-4,23.1-4.4,5,9.8,10.8,19.3,14.8,29.5,3.2,8.3,4.5,17.4,6.2,26.3a16.2,16.2,0,0,1-12.2,19c-14.8,3.7-25.6-5.3-26.5-20.4S855.1,697.7,853.1,680.6Zm36,63.6V740l-19.4-.6v4.2Z"/>
              <path class="cls-1" d="M1116.4,424.9c-5.6,16.1-23.5,27.4-36.7,23.5Z"/>
              <path class="cls-1" d="M957,563.6l14,8.7C960,579.4,958.4,578.5,957,563.6Z"/>
              <path class="cls-1" d="M959.1,512.4c2.6,1.9,5.8,3.5,7.6,6,.5.7-2.9,4.2-4.4,6.4l-7-8.5Z"/>
              <path class="cls-1" d="M1125,477.8c5.1,20.3-10.8,34.6-35,33C1105.4,503.9,1118.4,494.4,1125,477.8Z"/>
              <path class="cls-1" d="M1142.9,540.8c-.7,4.1-.1,9.2-2.3,12.3-9.8,13.7-24,18.7-40.7,17.9,15.5-7.5,34.5-10.3,39.1-32Z"/>
              <path class="cls-1" d="M1106.9,615.6c-4.4,12.4-26.2,17.1-51.7,10.1Z"/>
              <path class="cls-1" d="M978.1,725.2c26.9,2,26.9,2,32.1-11.7,2.3,6.6.3,11.6-6.3,15.8S986,733,978.1,725.2Z"/>
              <path class="cls-1" d="M919.6,742.9l28.2.8C938.5,754.6,926.6,754.2,919.6,742.9Z"/>
              <path class="cls-1" d="M889.2,744.2l-19.4-.5v-4.2l19.4.6Z"/>
            </g>
            <path class="cls-1" d="M874.1,1479.7c-36.9-417.1-66.2-575.6-6.2-728V586.8H842.1l-3,.6-4.6.6v.3l27.1,7.9a126.8,126.8,0,0,1-1.6,20.3l-28,3.3a101.1,101.1,0,0,1-3.3,11l21.1,18.7a127.9,127.9,0,0,1-9.6,17.1l-26.6-8.3a102.3,102.3,0,0,1-9.9,11l10.4,26a127,127,0,0,1-15.2,10.5l-20.3-18.7a101,101,0,0,1-16.7,6.6L759.1,721c-2.9.6-5.8,1.1-8.8,1.5s-6,.6-8.9.8L731.9,698a101.1,101.1,0,0,1-18.4-1.9l-2.6,4c19.6,168.4,44.5,495.4-10.8,779.6Z"/>
            <path class="cls-1" d="M876.5,594a134.1,134.1,0,0,1-5.7,29.5"/>
            <path class="cls-1" d="M880.2,616.8l.4,5.6c.1,1.9.2,3.9-.9,5.4s-2.7,1.9-4.3,2.3a1.4,1.4,0,0,1-1,0,1.3,1.3,0,0,1-.5-.9,15.9,15.9,0,0,1-.3-4.2c-2.1.8-4.3,1.8-5.2,3.8a8.3,8.3,0,0,0,0,4.7l1,5.3a1.2,1.2,0,0,0,1,1.2l3.5,1.2c-4.8-.9-8.7-4.2-12.3-7.4a35.2,35.2,0,0,0,14.1,7.2"/>
            <path class="cls-1" d="M872.3,583.7a5.7,5.7,0,0,0-2.9.9,3.4,3.4,0,0,0-1.5,2.6.3.3,0,0,0,.1.3h1.8a2.1,2.1,0,0,0,2.6-2.3.7.7,0,0,0-.1-.5l-.5-.2a25.7,25.7,0,0,0-10.8,1.2c1,1.1,1.2,2.9,2.5,3.7a7.1,7.1,0,0,0,2.7.7,7.5,7.5,0,0,1,2.7,1.1l-5.2-2a22.7,22.7,0,0,0,6.5,2.3,24.7,24.7,0,0,0-4.2-1.8,3.7,3.7,0,0,0,2.4,1.7l3.3,1.1"/>
            <path class="cls-1" d="M859.4,582.8a19.4,19.4,0,0,0-4.6,1.5,1.4,1.4,0,0,1,.7-1l-3.7,1.7c-.7.3-1.6,1-1.3,1.8a1.2,1.2,0,0,1,1.7,1.1,2.7,2.7,0,0,0-1.8-.2,2.8,2.8,0,0,1,1.5.8,9.9,9.9,0,0,0,6,1.9l-2.2-2.8a18.7,18.7,0,0,0,4.2,3.2,10.2,10.2,0,0,0-3.8-.6q8.7,2.6,17.6,4.3"/>
            <path class="cls-1" d="M861.2,581.4a73.8,73.8,0,0,1-12.4,3v3a.3.3,0,0,0,0,.2h.2l7.1,1.4-4.1-1.6-1-.5a3.6,3.6,0,0,1-1-2l-.4,1.7a15.6,15.6,0,0,1,5.6-1,12.3,12.3,0,0,0,3.4-.2,2.1,2.1,0,0,0-1.5-.7l.9-.5c-1.5-.2-2.9.8-4.1,1.6l2.9,2.2a14.3,14.3,0,0,1-5.3-1.3,8.1,8.1,0,0,1,3.9.5l-2.1-.6a18.7,18.7,0,0,1,5.6,1.1,7.8,7.8,0,0,1-2.7-1.4l3,1.8L858,587l1.6,2.7"/>
            <path class="cls-1" d="M854.5,586"/>
            <g>
              <path class="cls-1" d="M1255.4,197c.6,4.4,1.1,6.9,1.3,9.4,1.3,16.2,4.3,32.6,3.4,48.7-2,36-22.6,63.3-47.4,86.8-39.7,37.6-86.8,63.9-138.9,79.7-31.2,9.5-63.9,14.2-95.7,21.9q-38.4,9.2-76.3,20.3c-17.8,5.2-31.7,16.6-43.5,30.8s-5.6,37.5,9.7,42.1c9.2,2.8,11.6,10.6,11.3,19.1-.3,13.6-5.9,21.4-19.6,25.7-9.2,2.9-18.8,4.7-28.3,6.7v1.2c5,.1,10,.3,15,.8h.4c5.7.1,10.8,1.7,16.1,3.4a6.8,6.8,0,0,1,4.7,8,91.2,91.2,0,0,1,9.7,6.2c7.3,5.4,10.5,16,3,23.1a29.7,29.7,0,0,1-14.1,7.3v.8c-.1,1.1-.2,2.3-.4,3.5a59,59,0,0,0,6.4,6.3c7.3,5.7,15.8,6.2,23.5,1.4s5.4-12.8,3.2-19.9-4.6-12.8-7-19.2l2.8-2c3.4,3.5,6.9,7,10.2,10.6s3.7,5.9,6.3,7.4c7.2,4,25.9-.1,29.7-6.7,5-8.9,1.1-16.7-5-23.7-1.8-2-3.9-3.8-5.2-6.1s-1.2-4.5-2.2-8.9c5.9,1.9,10.3,2.2,13.2,4.4,12.1,9.3,22.1,3.3,31.3-4.3,2.9-2.4,5-8,4.5-11.8-1.6-12.4-9.2-20.3-21.6-23.3-6.8-1.7-13.6-3.6-20.4-5.4l.5-2.8c6.2,0,12.4.6,18.6,0,12.1-1.1,21.4-9.6,21.5-18.8s-10.8-21.6-22-22.5c-3.9-.3-7.9,1.1-11.8,1.6l-12.5,1.5c5.6-13,15.4-13.5,25-13.2,49.6,1.4,96-10.4,139.8-33.1,14.1-7.3,25.6-3.9,39.8-1.8C1247.2,431.5,1333.4,308.4,1255.4,197ZM972,572.3c-11.1,7.1-12.6,6.2-14-8.7Zm-12-59.9c2.6,1.9,5.8,3.5,7.6,6,.5.7-2.9,4.2-4.4,6.4l-7-8.5Zm120.6-64,36.7-23.5C1111.8,441,1093.8,452.3,1080.7,448.4Z"/>
              <path class="cls-1" d="M1162,475.6c3.2-2.5,6.2-5.4,9.7-7.4,31.8-18.2,62-38.6,86.7-66,9.6-10.6,23.8-36.9,21.4-34.3l34.1-70.6c13.4,128.1-95.9,225-174.7,212.8C1149.9,503.8,1160.4,476.8,1162,475.6Z"/>
              <path class="cls-1" d="M1145.8,578.7l-.7-2c4.2-6.3,28.2-40.8,33.2-55.7,59.3-26.3,109.4-63.7,147.2-119C1341.9,473.2,1228.8,557.7,1145.8,578.7Z"/>
              <path class="cls-2" d="M1119.1,594.2c77-17.5,152-38.8,207.5-100.3-15.3,98.5-179.4,136.2-199.1,138.4C1127.5,632.3,1134.9,608.5,1119.1,594.2Z"/>
              <path class="cls-2" d="M1079.5,672.8c.5-.5.9-1.2,1.4-1.3,12.4-3.5,11.7-27.7,11.5-29.3,61.2-1.1,120.9-8.5,177.3-41C1255.8,651.1,1131.6,699.8,1079.5,672.8Z"/>
              <path class="cls-1" d="M1113.8,437.4a5.7,5.7,0,0,0-5.1,1,40,40,0,0,0-4,3.6c-3.7,3.4-8.6,5.2-13.6,6a77.6,77.6,0,0,1-15,.4c4.8-1.2,9.9-.9,14.9-1.7a34.3,34.3,0,0,0,26.2-21.6c-1.1-1.1-2.8-.1-4,.8a319.5,319.5,0,0,0-24.4,21.3,5.7,5.7,0,0,1,.9-7.7,110.7,110.7,0,0,1-10.8,8"/>
              <path class="cls-1" d="M957.5,565.9a101.9,101.9,0,0,1,12.9,8.5l-7.2.2a2.3,2.3,0,0,0-1.2.2,1.4,1.4,0,0,0,.3,2.4,2.3,2.3,0,0,0,2.6-.8,6.8,6.8,0,0,0,1.1-2.7"/>
              <path class="cls-1" d="M963.3,523.8a5.3,5.3,0,0,1-.2-2.7,1.8,1.8,0,0,1,2.1-1.4v-6.2a1,1,0,0,0-1.3-1.2l-6.7,1.2c2,2.2,5.4,2.5,7.6,4.5a6.6,6.6,0,0,1,2,5.7,1.4,1.4,0,0,1-.4.9,1.6,1.6,0,0,1-1.2.2l-5.3-.6,3.6-4.2a6,6,0,0,0,1.6-2.6,2.1,2.1,0,0,0-1.3-2.5,3.1,3.1,0,0,0-2.5,1.2l-3.6,3.4a6.4,6.4,0,0,0,8.6-2,3.7,3.7,0,0,0-3.5,3.6c1.6-.9,1.3-3.6-.2-4.7s-3.5-1.1-5.3-.7a7.7,7.7,0,0,0-3.5,1.3,3.3,3.3,0,0,0-1.3,3.4,2.1,2.1,0,0,0,3,1.3"/>
              <path class="cls-1" d="M969.3,571v-3.1"/>
              <path class="cls-1" d="M969.8,572.1c1.3.6,1.4,2.6.4,3.7a6.9,6.9,0,0,1-3.8,1.7c-3,.7-6.1,1.3-9.2.8s-6-2.7-6.5-5.8"/>
              <path class="cls-1" d="M1129.6,475l-8.1,14.4a53.6,53.6,0,0,1-4.7,7.4c-3.5,4.4-8.4,7.6-13.1,10.6a115.9,115.9,0,0,0,11-14.3"/>
              <path class="cls-1" d="M1140.7,540.6c-.6-.3-1.1.6-1.1,1.2-.4,3.5.8,7.3-.7,10.6s-4.7,4.7-7.8,5.9c-10.7,4.3-22.2,6.9-33.7,6.4"/>
              <path class="cls-1" d="M1127,474.8c1.8,2.4,1.6,5.7.3,8.4s-3.4,4.8-5.6,6.8c-7,6.5-14.7,13.2-24.1,14.6"/>
              <path class="cls-1" d="M1125.5,473.9c1.3,7.1-2.4,14.3-7.7,19.1s-12.1,7.7-18.7,10.4"/>
              <path class="cls-1" d="M1104.6,614.8c-7.9-1.7-15.6,2.5-23.3,4.8s-14.2,2.6-21.3,3.1c1-1.6,3.3-1.8,5.2-1.7l18.4.7a15.1,15.1,0,0,0,5.9-.6,5.2,5.2,0,0,0,3.6-4.3"/>
              <path class="cls-1" d="M998,708.8a9.2,9.2,0,0,1,4.6,5.2,6.2,6.2,0,0,1-1.8,6.5,10.4,10.4,0,0,1-3.5,1.6c-2.6.8-5.8,1.5-7.9-.2s-1.6-2.1-2.7-2.7-3,.4-2.5,1.5a2.1,2.1,0,0,0,1.3.9l7.7,3.1a6.1,6.1,0,0,0,3.1.6,2.1,2.1,0,0,0,1.9-2.2"/>
              <path class="cls-1" d="M941.9,741.4l1.9,2.9c.2.3.4.6.2.9s-.5.3-.8.3l-13.3.7c-.3-1.5-1.4-2.7-2.2-4.1s-1.3-3.1-.4-4.4"/>
              <path class="cls-1" d="M871.2,734.5v4.9c-.1-1.1,1.3-1.5,2.4-1.6l6.3-.5c1.7-.1,3.8-.2,4.9,1.3"/>
              <path class="cls-1" d="M864.4,609.3c.8,4.2,2.8,7.6,3.8,11.6a11.6,11.6,0,0,1,.1,3.4q1.4-1.9-.4-.1l-1.4.7L880,635.4c.7-4.3,1.2-8.8,2.4-13.1,3.1-11.5-14.7-16.4-17.8-4.9-1.2,4.2-1.7,8.7-2.4,13.1-1.3,7.8,6.1,14.6,13.6,10.4s10.6-9,10.9-16.6-3.3-13-4.5-20c-.9-4.9-6.9-7.7-11.4-6.5s-7.3,6.4-6.5,11.4Z"/>
              <path class="cls-1" d="M955.3,570.4l2.2.5q1.4.5-.6-.3l1,.5c.4.2,1.4,1.2,1.9,1.2q-1.7-1.3-.6-.4l.8.8c3.4,3.4,9.7,3.7,13.1,0a9.4,9.4,0,0,0,0-13.1,25,25,0,0,0-12.8-7c-4.7-.9-10.2,1.3-11.4,6.5s1.4,10.4,6.5,11.4Z"/>
              <path class="cls-1" d="M952.5,526.8a45.8,45.8,0,0,0,10.5-1.5l-11.7-8.9v.5l.3-2.5,1.6-2.9c-3.5,3.3-3.6,9.8,0,13.1a9.4,9.4,0,0,0,13.1,0c2.4-2.2,3.2-5,3.5-8.1s-1.5-5.6-3.6-7.3a9.1,9.1,0,0,0-8.1-1.7l-4,.8,2.5-.3-4.1.3c-4.8.1-9.5,4.2-9.2,9.2s4.1,9.4,9.2,9.2Z"/>
              <path class="cls-1" d="M1107.4,419c-6.5,9.7-20.3,12-30.5,15.7-4.7,1.7-7.9,6.3-6.5,11.4s6.7,8.2,11.4,6.5c15.6-5.7,31.7-9.7,41.5-24.2,6.7-9.9-9.3-19.1-15.9-9.3Z"/>
              <path class="cls-1" d="M1100.8,504.3c6.4-1.9,11.7-6.5,16.3-11.1,1.9-1.9,4.2-3.5,6-5.5a54.2,54.2,0,0,0,6.1-9c3.4-5.9-.9-14.1-8-13.9s-15.4,5.8-22.1,9.2c-10.6,5.3-1.3,21.3,9.3,15.9l7.3-3.7c1.2-.6,4.7-3,5.5-3l-8-13.9c-2.4,4.2-4.9,6.7-8.4,9.9s-5.4,6.1-9,7.2c-11.3,3.4-6.5,21.3,4.9,17.8Z"/>
              <path class="cls-1" d="M1129.7,544l.8.6-3.3-3.3c-2-3.4.6-3.7-1.3-1.4s-1.5,2.1-2.4,3.1a20.9,20.9,0,0,1-7.7,5.6c-6.3,2.3-14.7,1.2-21.3,1.4-11.9.4-11.9,18.8,0,18.5,6.6-.2,13.3-.1,19.9-.9a34.7,34.7,0,0,0,18.7-8.3c8.9-7.4,18.2-22.5,5.9-31.2-4.1-2.9-10.3-.7-12.6,3.3s-.8,9.8,3.3,12.6Z"/>
              <path class="cls-1" d="M1115.5,476.4c-.3,1.9-.6,3.8-.9,5.7a12.2,12.2,0,0,0-.4,1.9q-.3,1,.3-.4l.9-1c.7-.5,1.8-.7.5-.6l-2.2.4a19.4,19.4,0,0,0-5.8,2c-4.3,2.2-5.9,8.6-3.3,12.6a9.5,9.5,0,0,0,12.6,3.3c-1.9,1,.7,0,1.4-.1l2.2-.4a15,15,0,0,0,7.5-4.2c3.8-3.9,4.1-9.3,4.9-14.4s-1.2-10.2-6.4-11.4-10.6,1.3-11.4,6.5Z"/>
              <path class="cls-1" d="M1124.1,535.7c-.3,5.6-8.2,7.9-12.5,9.2-7.6,2.5-15.1,4.6-23.2,4.2-11.9-.6-11.8,17.9,0,18.5s23.7-2.8,34.4-7.2,19-12.6,19.8-24.7-17.8-11.8-18.5,0Z"/>
            </g>
            <circle class="cls-3" cx="730.9" cy="596.2" r="35.4"/>
            <path class="cls-1" d="M1104.7,501a19.8,19.8,0,0,0-14.4,6.8,2.3,2.3,0,0,0,.5,3.6c6,3.6,10.7-5.9,13.6-9.7l-3.6-2.8a66.9,66.9,0,0,1-10.7,12.1c-1.9,1.7.6,5.1,2.8,3.6s6.6-2.6,9.8-4a65.6,65.6,0,0,0,10.1-5.6,2.3,2.3,0,0,0-1.8-4.2c-4.7,1.2-7.9,6.3-12.1,8.7s-10.7,4.4-15.8,7.4l3.2,3.2c2.9-4.9,10.1-8.6,14.8-11.6s10.2-6.3,16.2-7.3l-2.2-3.9a114.9,114.9,0,0,1-12.1,12.8c-2,1.7.6,4.9,2.8,3.6a38,38,0,0,0,17.4-21.7c.9-2.9-3.4-3.9-4.5-1.2l-5,12c-1,2.4,3.1,4.1,4.2,1.8,4.1-8.8,10.6-16.2,14-25.4.7-1.8-1.3-3.2-2.8-2.8-3.4.7-6,4.3-8.3,6.8s-6.2,7.4-9.3,11.2c-5.8,7.2-13,17.4-22.2,20.5l2.9,2.2c-.1-1.9,5.8-6.4,7-7.6l6.9-6.8,13.8-13.7a2.3,2.3,0,0,0-2.8-3.6c-10.2,6.1-18.3,14.9-27.5,22.4l3.9,2.2c.8-2.3,6.8-5.7,8.8-7.4l8.8-7.6a192.8,192.8,0,0,0,17.1-17.1c1.4-1.6.1-4.7-2.2-3.9-6.2,2.2-11.3,7.1-16.2,11.3s-11.8,10.4-17.4,15.9l3.9,2.2c1.7-6,5.5-10.6,9.6-15.2l-3.6-2.8c-4.4,7.1-9.1,16.8-16,21.7l3.2,3.2L1097,500c1.2-1.6-.8-4-2.6-3.4-6.8,2.5-12,7.5-18.4,10.8l3.4,2.6c2.7-7.2,6.8-14.1,10.3-20.9,1.6-3.1,3-6.5,5.4-9.2s4.6-4.2,6.8-6.3l-3.6-2.8q-3.7,8-6.8,16.3c-.6,1.7,1.3,3.3,2.8,2.8s5-3.1,7.3-5.2l9.3-8.3-3.9-2.2-5.5,19.3a2.3,2.3,0,0,0,3.9,2.2,145.9,145.9,0,0,0,14.5-16.4l-4-2.3c-4.6,8.1-9.2,16-16.3,22.1-2.3,1.9,1,5.2,3.3,3.3,7.4-6.4,12.3-14.7,17-23.1,1.5-2.7-2.2-4.6-4-2.3a138.2,138.2,0,0,1-13.8,15.4l3.9,2.2,5.5-19.3c.7-2.3-2.2-3.7-3.9-2.2l-6.4,5.7c-2.2,1.9-5.3,5.7-8.1,6.5l2.8,2.8q2.9-7.7,6.3-15.2a2.3,2.3,0,0,0-3.6-2.8c-2.6,2.4-5.5,4.6-7.8,7.4s-3.7,6-5.2,9.1c-3.7,7.2-8,14.4-10.8,22-.7,2,1.7,3.4,3.4,2.6,6-3.1,10.9-8,17.3-10.3l-2.6-3.4-7.9,10.3c-1.4,1.8,1.3,4.5,3.2,3.2,7.7-5.6,12.7-15.5,17.7-23.4,1.4-2.2-1.9-4.8-3.6-2.8-4.6,5.1-8.9,10.4-10.8,17.2a2.3,2.3,0,0,0,3.9,2.2q7.1-6.9,14.5-13.4c5.1-4.4,10.6-10.3,17.1-12.6l-2.2-3.9a199,199,0,0,1-19.1,18.9l-9.6,8.1c-2.5,2.1-6.1,3.9-7.2,7.1s2.2,3.6,3.9,2.2c8.9-7.2,16.7-15.7,26.6-21.7l-2.8-3.6-17.2,17.1-8.3,8.2c-2,1.9-3.7,3.2-3.5,6.1a2.3,2.3,0,0,0,2.9,2.2c8.2-2.7,14.7-10.3,20.1-16.7,3-3.5,5.8-7.1,8.7-10.6l4.2-4.9c1.6-1.7,4.4-5.7,6.8-6.2l-2.8-2.8c-3.3,8.8-9.6,15.8-13.6,24.3l4.2,1.8,5-12-4.5-1.2a33,33,0,0,1-15.2,19l2.8,3.6a114.9,114.9,0,0,0,12.1-12.8,2.3,2.3,0,0,0-2.2-3.9c-7,1.1-13,4.9-18.8,8.7s-11.8,7.1-14.9,12.3a2.3,2.3,0,0,0,3.2,3.2c4.6-2.7,9.6-4.3,14.4-6.7a31.6,31.6,0,0,0,5.5-3.5c2-1.6,4.5-4.8,6.9-5.4l-1.8-4.2a61.5,61.5,0,0,1-11.1,6c-2.9,1.2-6.2,1.8-8.8,3.6l2.8,3.6a71.7,71.7,0,0,0,11.5-13c1.5-2.1-2-4.9-3.6-2.8s-6.7,9.7-8,8.9l.5,3.6a15.1,15.1,0,0,1,11.2-5.5c3-.1,3-4.8,0-4.6Z"/>
            <path class="cls-1" d="M1088.4,519.4c9.3-3.2,18.6-6.9,26-13.6s13-16,17-25.3l-4.2-1.8c-3.5,8.9-7.5,18.3-14.5,25s-18.2,8.9-27.2,13.6c-2.6,1.4-.3,5.4,2.3,4,9.9-5.2,21.1-7,29.2-15.4s11-16.8,14.7-26c1-2.4-3.2-4.2-4.2-1.8-3.6,8.5-8.4,16.8-15.1,23.2s-16,10.5-25.1,13.6c-2.8.9-1.6,5.4,1.2,4.5Z"/>
            <path class="cls-1" d="M1114.9,562.8c-4.7.3-10.9-.5-14.8,2.6-1.9,1.5.2,4.4,2.2,3.9l10.8-3.1-1.8-4.2-13.2,6.7,2.3,4a51.7,51.7,0,0,1,10.5-5.1l-2.2-3.9a41.6,41.6,0,0,1-7.5,5.6c-1.9,1.1-1.2,4.5,1.2,4.3a58,58,0,0,0,17.9-4.8c2.5-1.1.7-4.8-1.8-4.2-5.3,1.3-10.6,2.8-15.9,3.9l-.4.9,1.3-1.3,2.6-2.4a74.6,74.6,0,0,1,8.1-6.1l-2.3-4L1093.7,569l2.8,3.6c6-4.8,12.6-8.7,19.2-12.5,2.6-1.5.3-5.4-2.3-4q-8.1,4.2-15.7,9.1l3.4,1.4c-.2-.6,3.1-4,3.9-4.9a45.2,45.2,0,0,1,6.2-5.6c4-3,8.7-4.7,12.5-7.8,1.7-1.5-.1-4.6-2.2-3.9-8.7,3.2-16.5,10-24.2,15.1l2.8,3.6c8-7.8,19.8-12.8,30-16.8l-1.8-4.2a290.9,290.9,0,0,0-27.8,19.9c-2,1.6.3,4.2,2.2,3.9l17.3-2.9-2.2-3.9a92.3,92.3,0,0,1-10.1,7.3c-2.5,1.6-8.2,5.9-11.2,4.3l-.6,4.2a65.7,65.7,0,0,1,15.6-3.8l-1.2-4.3a25,25,0,0,1-12.7,4.1c-3.4.3-5.9-.3-9.2.9s-11.7,5-10.4-2.5c.6-3.8,2.4-7.4,3.3-11.2.4-1.7-1.7-3.9-3.4-2.6s-11.7,11.3-3.9,12.8,19.6-6.8,25.5-12.5c2.2-2.1-1.1-5.3-3.3-3.3a102.9,102.9,0,0,0-14.6,16.8,2.3,2.3,0,0,0,2,3.5c5.9-.2,12.2-4.8,17.4-7.3l19.9-9.9c2.1-1.1,1-4.3-1.2-4.3-9.4,0-18.4,9.9-24.9,15.8-1.6,1.5-.2,3.8,1.6,3.9,9.5.9,22.8.7,30.1-6.5l-3.3-3.3-5.4,5.9c-1.7,1.9.5,5,2.8,3.6a81,81,0,0,0,26.3-25.3c1.7-2.5-2.2-4.6-4-2.3l-5,6.6,4.2,1.8c1.2-5.7,2.1-11.4,2.8-17.1.3-2.1-2.6-2.9-3.9-1.6a55.1,55.1,0,0,0-9.3,11.5c-1.6,2.6,2.3,4.7,4,2.3a59.3,59.3,0,0,0,5.2-9.1l-4-2.3-9,21.1,4.2,1.8,3-9.5c.6-1.8-1.7-3.8-3.4-2.6-5.5,4-9.7,10.8-14,15.9-1.9,2.3,1,5.3,3.3,3.3a78.4,78.4,0,0,1,10-7.9c2.1-1.4.8-5.1-1.8-4.2l-22.2,7.1,1.8,4.2a139,139,0,0,1,28.1-14.1l-1.8-4.2c-14.6,7.3-29.4,14.5-45,19.5l1.8,4.2c3.9-2.8,9.8-3.6,14.4-4.6s9.5-1.9,14.3-2.6l-1.8-4.2c-6.6,3.1-13.5,7.4-20.7,9.2l1.2,4.5a43.5,43.5,0,0,1,13.5-2c3,0,3-4.6,0-4.6a47.8,47.8,0,0,0-14.8,2.2,2.3,2.3,0,0,0,1.2,4.5c7.5-1.9,14.8-6.4,21.8-9.6,2.6-1.2.6-4.6-1.8-4.2-5.4.8-10.8,1.8-16.1,3s-9.9,1.9-13.7,4.7c-2,1.4-.9,5.1,1.8,4.2,16-5.1,31.1-12.4,46.1-19.9,2.3-1.2.7-5.1-1.8-4.2a144.3,144.3,0,0,0-29.2,14.6c-2.1,1.4-.8,5,1.8,4.2l22.2-7.1-1.8-4.2a85.9,85.9,0,0,0-11,8.6l3.3,3.3,6.4-7.6c2.1-2.5,4.1-5.7,6.7-7.6l-3.4-2.6-3,9.5c-.8,2.4,3.2,4.2,4.2,1.8l9-21.1c1.1-2.7-2.7-5.1-4-2.3a59.3,59.3,0,0,1-5.2,9.1l4,2.3a50.5,50.5,0,0,1,8.5-10.6l-3.9-1.6c-.7,5.3-1.6,10.6-2.7,15.9-.6,2.7,2.7,3.8,4.2,1.8l5-6.6-4-2.3a75.7,75.7,0,0,1-24.6,23.6l2.8,3.6,5.4-5.9c2-2.2-1.1-5.4-3.3-3.3-6.3,6.2-18.7,5.9-26.8,5.1l1.6,3.9c3.1-2.8,6.3-5.6,9.6-8.2s7.4-6.3,12-6.3l-1.2-4.3-16.4,8.2-7.8,3.8c-3.1,1.5-7.3,4.4-10.7,4.6l2,3.5a97.3,97.3,0,0,1,13.8-15.9l-3.3-3.3a49.4,49.4,0,0,1-9.6,7.3c-1.7,1-10.3,5.8-12,4l.6,2.2c.4-2.7,2.9-5,4.9-6.6l-3.4-2.6c-1.2,5.4-8.9,22.5,2.9,22a32.2,32.2,0,0,0,8.2-2c3.4-1.1,6.3-1,9.7-1.3,5.3-.5,10.6-1.6,15-4.7,1.6-1.2,1.3-4.6-1.2-4.3a70.6,70.6,0,0,0-16.9,3.9c-1.7.6-2.4,3.2-.6,4.2,4.3,2.2,8.2,0,12.1-2.1a97.9,97.9,0,0,0,14.7-10.2c2-1.6-.2-4.2-2.2-3.9l-17.3,2.9,2.2,3.9a280.8,280.8,0,0,1,26.8-19.2c2.1-1.3.8-5.2-1.8-4.2-11.1,4.3-23.4,9.6-32.1,17.9-1.8,1.8.6,5.1,2.8,3.6l11.2-7.4c3.8-2.5,7.6-5.6,11.9-7.2l-2.2-3.9c-2.7,2.3-6.2,3.5-9.2,5.5a51,51,0,0,0-7.2,5.7c-2.6,2.4-8.7,7.6-7.3,11.6a2.3,2.3,0,0,0,3.4,1.4q7.7-4.9,15.7-9.1l-2.3-4a164.8,164.8,0,0,0-20.1,13.3c-2,1.6.7,5.2,2.8,3.6l18.1-13.5c2.3-1.7.2-5.7-2.3-4a81.5,81.5,0,0,0-11,8.6c-1.9,1.8-5.6,4.4-3.9,7.4s4.5,1.8,7,1.2l15.9-3.9-1.8-4.2a50.8,50.8,0,0,1-15.6,4.1l1.2,4.3a46.8,46.8,0,0,0,8.4-6.3c1.6-1.5-.1-4.6-2.2-3.9a57.3,57.3,0,0,0-11.6,5.6,2.3,2.3,0,0,0,2.3,4l13.2-6.7c2.4-1.2.7-4.9-1.8-4.2l-10.8,3.1,2.2,3.9c2.2-1.8,8.8-1,11.5-1.2s3-4.8,0-4.6Z"/>
            <path class="cls-1" d="M1141.7,542.9a43.5,43.5,0,0,1-15.3,20.8c-7.4,5.3-17.8,5.2-26.5,6.5-2.9.4-1.7,4.9,1.2,4.5,10.2-1.5,20.9-1.6,29.3-8.2a48.9,48.9,0,0,0,15.7-22.3c1-2.8-3.5-4-4.5-1.2Z"/>
            <path class="cls-1" d="M1108.2,610.8c.4,3-5.8,7.6-7.9,8.6s-6.8,2.5-10.2,3.4a170.5,170.5,0,0,1-20.1,4.2c-2.6.4-2,4.6.6,4.5,4.9-.2,9.8.2,13.7-3,1.7-1.4-.1-4.7-2.2-3.9a37.9,37.9,0,0,1-12.3,2.2c-3,.1-10.1,1.7-12.7.1l-1.2,4.3c7-.2,13.2.6,19.9-1.9s12.7-4.3,18.9-7.1c4.3-2,11.5-3.7,13.7-8.2,1.5-3.1,3.8-8.6.2-10.9s-11.7-3.6-17.3-4.3-14.1-2-21.2-2.3c-5.2-.2-11.7.2-15.6,4.1s-2.6,10.7-1.1,15.2c.9,2.8,5.3,1.6,4.5-1.2s-1.9-6.5-.9-9.1,5.3-4,8.3-4.3,8.3.1,12.4.5,11,1.3,16.4,2.1l4.9.8c1.3.3,6.7,1.3,7.2,2.4s-2.7,6-3.5,6.6a33.4,33.4,0,0,1-5.1,2.4,126.4,126.4,0,0,1-14.5,6.2c-3.7,1.2-7.5,2.8-11.2,3.8s-10.5.5-15.7.7a2.3,2.3,0,0,0-1.2,4.3c3.6,2.2,9.1.8,13.1.6s10.3-.5,15.5-2.5l-2.2-3.9c-2.6,2.2-7.3,1.6-10.5,1.7l.6,4.5c10-1.5,20.5-3.5,29.8-7.3,5.4-2.2,12.6-8.2,11.7-14.6-.4-2.9-4.9-1.7-4.5,1.2Z"/>
            <path class="cls-1" d="M1097.6,615.9c3.7,0,9.9,2.5,12.7-1.2s.3-5.3-2.4-6.5c-8.2-3.7-21.4-4.3-28.7,1.5-1.3,1-.6,2.9.5,3.6,6.7,4.6,18.4-.1,25-2.8,2.7-1.1,1.7-5.3-1.2-4.5a245.5,245.5,0,0,0-34.2,12.4l2.3,4c6.6-3.4,13.8-5,21.1-6.5,2.5-.5,2-4.6-.6-4.5a17.8,17.8,0,0,0-8.8,2.6c-1.9,1.1-1.2,4.4,1.2,4.3a98.5,98.5,0,0,0,13-1.6l-2.2-3.9a28.8,28.8,0,0,1-10.6,8.2l2.8,3.6c3.3-2.8,6.7-3.3,10.7-4.3s6.5-3.8,10.5-3.3l-2-3.5c-4.3,9.4-16.8,10.2-25.8,11.4-10.5,1.4-20.6,1.3-30.8-1.7l-.6,4.5a108.5,108.5,0,0,0,30.1-4.6,2.3,2.3,0,0,0-.6-4.5,225.1,225.1,0,0,0-26.5,1c-2.9.3-3,4.5,0,4.6a198.8,198.8,0,0,0,25.4-.4c2.9-.3,3-4.8,0-4.6a80.6,80.6,0,0,0-15.2,2.4c-2.5.6-2,4.7.6,4.5,8.1-.5,16.1-1.3,23.3-5.5,2.4-1.4.7-4.6-1.8-4.2a51.2,51.2,0,0,0-9,2.4,2.3,2.3,0,0,0-.6,4.2c4.3,2.9,9,1.6,10.9-3.2.6-1.5-.9-2.9-2.2-2.9-15.7-.6-31.9,1.5-47.6,2.8-2.9.3-3,4.7,0,4.6a92.8,92.8,0,0,1,13,.3c4.1.5,7.9,1.9,12.1,1.7,2.5-.1,3.3-4.1.6-4.5a63.2,63.2,0,0,1-11-3l-.6,4.5c6-.4,12.1-1,18.1-2s13.6-3.2,20.6-2.9l-2-3.5-2.6,1.2c-2.9-.6-4.1,3.8-1.2,4.5a6.8,6.8,0,0,0,7.8-3.3,2.3,2.3,0,0,0-2-3.5c-6.1-.3-12,1.3-17.9,2.4a175.6,175.6,0,0,1-20.7,2.5,2.3,2.3,0,0,0-.6,4.5,63.2,63.2,0,0,0,11,3l.6-4.5c-4.1.2-8.1-1.2-12.1-1.7a101.4,101.4,0,0,0-13-.3v4.6c15.7-1.4,31.8-3.4,47.6-2.8l-2.2-2.9-4.1.4-.6,4.2a51.2,51.2,0,0,1,9-2.4l-1.8-4.2c-6.5,3.7-13.7,4.4-21,4.9l.6,4.5a73.8,73.8,0,0,1,14-2.3V619a198.8,198.8,0,0,1-25.4.4v4.6a225.1,225.1,0,0,1,26.5-1l-.6-4.5a103.8,103.8,0,0,1-28.9,4.5,2.3,2.3,0,0,0-.6,4.5c12.1,3.5,24.1,3.1,36.4,1.2,9.5-1.4,20.9-3.3,25.4-13a2.4,2.4,0,0,0-2-3.5c-5.4-.7-8.2,2.8-13.3,3.8a24,24,0,0,0-11.1,5.2c-2.2,1.8.6,4.6,2.8,3.6a31.6,31.6,0,0,0,11.5-9,2.3,2.3,0,0,0-2.2-3.9,89.2,89.2,0,0,1-11.8,1.5l1.2,4.3a12.9,12.9,0,0,1,6.5-1.9l-.6-4.5c-7.6,1.6-15.1,3.4-22.2,7-2.7,1.4-.3,5.2,2.3,4a237.5,237.5,0,0,1,33.1-11.9l-1.2-4.5c-5.3,2.2-16.2,6.9-21.4,3.3l.5,3.6c4.4-3.5,12.1-3,17.3-2.1l3.3.7c.3.1,2.4.3,1.2.4s-4.5-.6-6.7-.6-3,4.6,0,4.6Z"/>
            <path class="cls-1" d="M985.2,719.1c-3.5.2-6.8.2-10.1-1.3a11.8,11.8,0,0,0-4.5-1.5c-2.2-.2-2.8,2.5-1.6,3.9,4.2,5.2,10,8,16,10.4s11.3,2.6,17.9-1.1l-3.4-2.6c-1,6.1-10.1,2.2-13.2,1l-1.2,4.5c9,3.5,18.1,4.2,24.6-3.7a19.5,19.5,0,0,0,1.4-23.3c-1.7-2.5-12.4-12.1-13.6-4.3-.5,3.1,3.3,5.6,5.4,7.2s2.9,1.7,3.6,3.6-.1,3.5-1.9,5.5a19.3,19.3,0,0,1-6.7,4.5l3.2,3.2a99,99,0,0,0,6.8-14.1c.6-1.5-.9-2.8-2.2-2.9-4.8-.4-10.2,2.7-14.4,4.9s-5.8,3.8-9.2,4.5-5.6.5-8.4,1.2l2.9,2.2c.1-3.7,11.3-7.6,14.3-7.6a1.4,1.4,0,0,1,1.9.4q1.8.4.4,1.4c-.3.8-1.7,1.8-2.3,2.4a30.5,30.5,0,0,1-6.6,4.2,2.3,2.3,0,0,0-.5,3.6c5.8,4.6,13.3,7.4,19,.8,3.3-3.9,5.7-14-2.3-12.9a11.9,11.9,0,0,0-7.9,4.9c-1.6,2.2-4,6.9-2.4,9.6s4.5,1.9,6.4,1.1c4.2-1.6,5.7-5.9,6.7-10,.5-2.1-2.3-4-3.9-2.2s-3.4,4.2-2.8,7a4.7,4.7,0,0,0,5.9,3.6c6.7-1.4,8.5-10.3,7.4-15.9-.4-1.8-2.7-2.1-3.9-1a19.5,19.5,0,0,0-6.4,11.3c-.4,2.5-.8,6.9,2.3,8,6.3,2.3,12.5-11.2,9.6-15.7-1.6-2.5-5.6-.2-4,2.3s-1.1,4.9-1.6,5.7-2.1,4.7-2,1.9,2.4-7.5,5.3-10.1l-3.9-1a10.1,10.1,0,0,1-.7,6.6,7.3,7.3,0,0,1-1.8,2.7q-2.9-.1-.3-1.9l-3.9-2.2c-.5,2-2.3,8.9-5.5,6.9l1.1,2c-.3-2.8,1.5-6.2,3.8-7.7s3-.8,2.5,1.6-3,4.5-5.1,5-6.2-1.5-8.6-3.4l-.5,3.6c3.6-1.8,19.6-13.4,9.3-17.2-4.1-1.5-10.5,1.3-14.1,2.9s-9.6,4.3-9.7,9.4a2.3,2.3,0,0,0,2.9,2.2c5.2-1.3,9.4-.9,14.2-3.7s11.1-7.2,16.5-6.7l-2.2-2.9a91.4,91.4,0,0,1-6.3,13c-1.3,2.2,1.2,4,3.2,3.2,4.8-2.1,10.5-6.4,11.4-11.9,1.3-7.6-8-7.4-9.7-13.1l-.6,2.2c1.4-1.7,7.2,7.1,7.5,8.1a15,15,0,0,1-1,12.3c-2.2,3.9-5.8,7-10.4,7a30.7,30.7,0,0,1-11.1-2.4c-2.8-1.1-4,3.4-1.2,4.5,6,2.4,17.4,5,18.9-4.2a2.3,2.3,0,0,0-3.4-2.6c-3,1.7-6,3.1-9.6,2.3a38.6,38.6,0,0,1-6.2-2.3c-4.8-2-9.2-4.5-12.6-8.7l-1.6,3.9c2.1.2,4.3,2,6.5,2.5a31.9,31.9,0,0,0,8.1.3c3-.1,3-4.8,0-4.6Z"/>
            <path class="cls-1" d="M917.9,743.1c.1,9.1,10.5,12.7,18.3,13,3.8.1,8.4-.3,11.5-2.9s6.7-8.9,9-13.5a2.3,2.3,0,0,0-3.6-2.8l-6.4,5.3c-2.9,2.3-5.3,2.7-9,2.5a172.5,172.5,0,0,1-17.4-1.8v4.5c4.6-1.8,10.9-.7,15.8-.7s7.9.1,11.8-1.1a2.3,2.3,0,0,0-.6-4.5H926.2c-2.2,0-5.4.6-7.5,0l1.6,2.8c-.2,1,21.2-.2,23.5-.7s12.6.3,12.3-5.3-9.8-4.1-13.1-4.1a74.6,74.6,0,0,0-11.4.9c-4.3.7-9.2,2.9-13.6,2.2v4.5c5.1-1.7,10.2-1.8,15.5-1.6l7.3.4c1.7.1,8.3.1,9.3,1.6,2.3,3.4-8.1,7.3-10.3,7.7-5.7,1-13.6.1-16.9-5.2-1.6-2.5-5.6-.2-4,2.3,7.5,12,29.3,9.9,36-1.9,4-7-5.6-8-10.5-8.7-8.9-1.2-19.1-1.9-27.7,1-2,.7-2.4,4,0,4.5,5.9,1.1,11.7-1.6,17.5-2.3a69.5,69.5,0,0,1,10.5-.5l5.4.3c1-1.8-2.2-1.2-2.7-1.1-3.5.4-6.8,1.7-10.4,2s-6.5.1-9.8.1-10.9-1-11.6,3a2.4,2.4,0,0,0,1.6,2.8c3.9,1.2,9.5.2,13.5.2h16.3l-.6-4.5c-8.8,2.7-19-1.6-27.5,1.8-1.8.7-2.5,4.1,0,4.5,7.1,1.1,14.7,2.3,21.9,2.1s10.7-5.5,15.3-9.3l-3.6-2.8c-2.9,5.8-6.1,13.2-13.3,14-5.4.6-16.8-1-16.9-8.3,0-3-4.7-3-4.6,0Z"/>
            <path class="cls-1" d="M886.2,740.2a6.3,6.3,0,0,1-.3,2.6l1.6-1.6c-1.8.3-4.2-.9-6.1-1s-8.8,1.4-9.4-.4l-2.2,2.9c5.8-.6,12.1-1.8,17.9-1.2l-1.2-4.3a4,4,0,0,1-3.4.7c-2.9-.5-4.2,4-1.2,4.5a9.5,9.5,0,0,0,7-1.2c2.1-1.3,1-4.1-1.2-4.3-5.8-.6-12.1.7-17.9,1.2a2.3,2.3,0,0,0-2.2,2.9,6.5,6.5,0,0,0,4.2,4.5c2.9.9,6-.8,9-.8s5.7,1.8,8,.8,2.1-3.5,2-5.5-4.7-3-4.6,0Z"/>
          </g>
          <g>
            <g>
              <path class="cls-1" d="M485.1,241.5"/>
              <path class="cls-1" d="M461.1,441.4a29.7,29.7,0,0,1-14.1-7.3c-7.5-7.1-4.3-17.7,3-23.1a86,86,0,0,1,7.6-5,6.4,6.4,0,0,1,2.7-7.9c4.9-3.1,10.6-4,16.3-4.1l1.4-.3a143.3,143.3,0,0,1,17.9-1.2v-1.2c-9.6-2-19.1-3.8-28.3-6.7-13.8-4.3-19.3-12.1-19.6-25.7-.2-8.6,2.2-16.4,11.3-19.1,15.3-4.6,21.1-28.4,9.7-42.1s-25.7-25.6-43.5-30.8q-37.9-11.1-76.3-20.3c-31.8-7.6-64.5-12.4-95.7-21.9-52.1-15.9-99.3-42.1-138.9-79.7C89.7,121.4,69,94.1,67,58.1,66.1,42,69.1,25.6,70.4,9.4c.2-2.5.7-5,1.3-9.4C-6.3,111.4,79.9,234.5,193,255.5c14.2-2.1,25.8-5.5,39.8,1.8,43.8,22.7,90.2,34.5,139.8,33.1,9.6-.3,19.4.2,25,13.2l-12.5-1.5c-3.9-.5-7.9-1.9-11.8-1.6-11.3.8-22.1,12.3-22,22.5s9.4,17.7,21.5,18.8c6.1.6,12.4,0,18.6,0l.5,2.8c-6.8,1.8-13.6,3.7-20.4,5.4-12.4,3-20,10.9-21.6,23.3-.5,3.8,1.6,9.4,4.5,11.8,9.2,7.6,19.2,13.6,31.3,4.3,2.9-2.2,7.3-2.5,13.2-4.4-1,4.4-1.1,6.9-2.2,8.9s-3.4,4.1-5.2,6.1c-6.1,7-9.9,14.8-5,23.7,3.7,6.6,22.5,10.7,29.7,6.7,2.7-1.5,4.1-5,6.3-7.4s6.8-7.1,10.2-10.6l2.8,2c-2.3,6.4-5,12.7-7,19.2s-4.8,15,3.2,19.9,16.2,4.3,23.5-1.4a59,59,0,0,0,6.4-6.3c-.2-1.2-.3-2.4-.4-3.5ZM209.8,227.9l36.7,23.5C233.3,255.3,215.3,244,209.8,227.9Zm154.1,99.9c-1.6-2.2-4.9-5.8-4.4-6.4,1.8-2.5,5-4.1,7.6-6l3.8,3.9Zm-8.8,47.5,14-8.7C367.7,381.5,366.2,382.4,355.1,375.3Z"/>
              <path class="cls-1" d="M165.1,278.6c-3.2-2.5-6.2-5.4-9.7-7.4-31.8-18.2-62-38.6-86.7-66-9.6-10.6-23.8-36.9-21.4-34.3L13.2,100.3C-.2,228.4,109.1,325.3,188,313.1,177.2,306.8,166.7,279.8,165.1,278.6Z"/>
              <path class="cls-1" d="M181.3,381.7l.7-2c-4.2-6.3-28.2-40.8-33.2-55.7C89.5,297.8,39.5,260.4,1.6,205.1-14.8,276.2,98.3,360.7,181.3,381.7Z"/>
              <path class="cls-2" d="M208,397.2C131,379.7,55.9,358.4.5,296.8c15.3,98.5,179.4,136.2,199.1,138.4C199.6,435.3,192.2,411.5,208,397.2Z"/>
              <path class="cls-1" d="M341.8,341.6c-6.9.3-14,1.8-20.7.8-26.4-3.9-53-7.3-78.8-13.5-14.2-3.4-28.3-10.5-40.2-19-8.4-6-14.2-16.6-18.9-26.2s.9-17,10.3-17.6c11.7-.8,24.9-2.1,35.2,2.2,35.8,14.8,72.8,24.5,110.8,30.7,2.9.5,5.8,1.5,8.6,2.2l-.8,4.4C344.6,313,342.2,340.5,341.8,341.6ZM236.1,313.8c-15.4-6.9-28.3-16.4-35-33C196.1,301.1,211.9,315.4,236.1,313.8Z"/>
              <path class="cls-1" d="M338.6,378.8c-3.5,1.2-7,2.9-10.6,3.5-8.9,1.4-17.9,2.4-26.9,3.4-33.9,3.7-67.5,1.7-100-9.1-14.1-4.7-24.1-15.4-30.8-28.6-3-5.9-2.9-12.4,4-15.5,11.4-5.1,23.4-9.3,35.8-4.1,31.3,13.1,64.3,17.8,97.7,20.6,11.1.9,22.1,2.3,33.1,3.4l-.2,2.8C338.4,363.8,340,374.6,338.6,378.8Zm-153-22.7c9.8,13.7,24,18.7,40.7,17.9-15.5-7.5-34.5-10.3-39.1-32l-3.9,1.8C184,348,183.4,353,185.6,356.1Z"/>
              <path class="cls-2" d="M247.6,475.8c-.5-.5-.9-1.2-1.4-1.3-12.4-3.5-11.7-27.7-11.5-29.3-61.2-1.1-120.9-8.5-177.3-41C71.3,454.1,195.5,502.8,247.6,475.8Z"/>
              <path class="cls-1" d="M366.3,422.5c-17.4,6.5-35.1,12.3-52.1,19.8-14.2,6.3-28.8,12.9-40.7,22.5-7.5,6.1-11.4,17.5-15.2,27.2s2.7,15.8,10,19.6,15.7,4.3,21.4-2.4c18.5-21.6,43.2-34.2,66.6-48.9,9.4-5.9,17.8-13.4,26.6-20.2C382.4,439.3,366.6,423.3,366.3,422.5Z"/>
              <path class="cls-1" d="M370.5,410.7c-4.4,2-8.5,4.6-13.1,5.8-23.8,6.5-47.6,13.1-71.7,18.9a108.9,108.9,0,0,1-57.5-1.8c-6-1.8-11.9-6.2-16.2-10.9-6-6.5-4.1-15.8,4.2-18.8,10.4-3.9,21.5-7.2,32.5-8.2,22.6-2,45.3-2.2,68-3.4,8.3-.5,16.6-1.8,24.9-2.7C341.8,391,370.1,409.9,370.5,410.7Zm-99.6,18-51.7-10.1C223.6,431,245.4,435.7,270.9,428.8Z"/>
              <path class="cls-1" d="M416.6,456.6c-4.1,5.2-8.1,10.5-12.3,15.6-14,17-29.1,33.2-41.7,51.2-8,11.4-17,17.3-30.6,18.4s-23.2-6.3-23.5-19.5c-.4-15.2,7.6-25.5,19.9-33.6,18.1-11.9,35.9-24.3,53.8-36.4l12.9-8.5C395.4,444.5,415.9,456,416.6,456.6ZM316,516.6c-2.3,6.6-.3,11.6,6.3,15.8s18,3.6,25.8-4.2C321.2,530.2,321.2,530.2,316,516.6Z"/>
              <path class="cls-1" d="M443.9,468.2s-22.9,45.7-27.2,70.9c-2,11.8-8.7,17.8-19.3,21.6s-16.9.4-23.9-5.5-7.6-12.9-4.1-20.8c11.8-27.1,54.4-66.6,54.4-66.6Zm-65.5,78.5c9.3,11,21.2,10.5,28.2-.8Z"/>
              <path class="cls-1" d="M467.6,533.5c-.9,15.1-11.6,24.1-26.5,20.4a16.2,16.2,0,0,1-12.2-19c1.7-8.8,3-18,6.2-26.3,4-10.2,9.8-19.7,14.8-29.5.8.4,17.4,13,23.1,4.4C471.1,500.7,468.6,517,467.6,533.5Zm-11.2,13.2v-4.2l-19.4.6v4.2Z"/>
            </g>
            <path class="cls-1" d="M618.8,1479.7c-48-366.8-20-776.3-1.1-972.6l-5.1-8a101.1,101.1,0,0,1-18.4,1.9l-9.4,25.4c-3-.2-5.9-.4-8.9-.8s-5.9-.9-8.8-1.5l-2.8-27.3a101,101,0,0,1-16.7-6.6l-20.3,18.7a127.1,127.1,0,0,1-15.2-10.5l10.4-26a102.3,102.3,0,0,1-9.9-11L486,469.7a127.9,127.9,0,0,1-9.6-17.1l21.1-18.7a101.1,101.1,0,0,1-3.3-11l-28-3.3a126.8,126.8,0,0,1-1.6-20.3l27.1-7.9v-.4a16.8,16.8,0,0,1-2.9-.7l-2.3-.5H458.2V600.4c58.1,188.4,32.6,384.1-2.6,879.3Z"/>
            <path class="cls-1" d="M449.6,397a134.1,134.1,0,0,0,5.7,29.5"/>
            <path class="cls-1" d="M445.9,419.7l-.4,5.6c-.1,1.9-.2,3.9.9,5.4s2.7,1.9,4.3,2.3a1.4,1.4,0,0,0,1,0,1.3,1.3,0,0,0,.5-.9,15.9,15.9,0,0,0,.3-4.2c2.1.8,4.3,1.8,5.2,3.8a8.3,8.3,0,0,1,0,4.7l-1,5.3a1.2,1.2,0,0,1-1,1.2l-3.5,1.2c4.8-.9,8.7-4.2,12.3-7.4a35.2,35.2,0,0,1-14.1,7.2"/>
            <path class="cls-1" d="M453.9,386.7a5.7,5.7,0,0,1,2.9.9,3.4,3.4,0,0,1,1.5,2.6.3.3,0,0,1-.1.3h-1.8a2.1,2.1,0,0,1-2.6-2.3.7.7,0,0,1,.1-.5l.5-.2a25.7,25.7,0,0,1,10.8,1.2c-1,1.1-1.2,2.9-2.5,3.7a7.1,7.1,0,0,1-2.7.7,7.5,7.5,0,0,0-2.7,1.1l5.2-2a22.7,22.7,0,0,1-6.5,2.3,24.7,24.7,0,0,1,4.2-1.8,3.7,3.7,0,0,1-2.4,1.7l-3.3,1.1"/>
            <path class="cls-1" d="M466.7,385.8a19.4,19.4,0,0,1,4.6,1.5,1.4,1.4,0,0,0-.7-1l3.7,1.7c.7.3,1.6,1,1.3,1.8a1.2,1.2,0,0,0-1.7,1.1,2.7,2.7,0,0,1,1.8-.2,2.8,2.8,0,0,0-1.5.8,9.9,9.9,0,0,1-6,1.9l2.2-2.8a18.7,18.7,0,0,1-4.2,3.2,10.2,10.2,0,0,1,3.8-.6q-8.7,2.6-17.6,4.3"/>
            <path class="cls-1" d="M464.9,384.4a73.8,73.8,0,0,0,12.4,3v3a.3.3,0,0,1,0,.2H477l-7.1,1.4,4.1-1.6,1-.5a3.6,3.6,0,0,0,1-2l.4,1.7a15.6,15.6,0,0,0-5.6-1,12.3,12.3,0,0,1-3.4-.2,2.1,2.1,0,0,1,1.5-.7l-.9-.5c1.5-.2,2.9.8,4.1,1.6l-2.9,2.2a14.3,14.3,0,0,0,5.3-1.3,8.1,8.1,0,0,0-3.9.5l2.1-.6a18.7,18.7,0,0,0-5.6,1.1,7.8,7.8,0,0,0,2.7-1.4l-3,1.8,1.4-1.3-1.6,2.7"/>
            <g>
              <path class="cls-1" d="M186.9,344.9c6.7,4.7,9,14.8,16.6,17.7a22.3,22.3,0,0,0,5.3,1.1l18.1,2.2"/>
              <path class="cls-1" d="M200.7,283c-2.5,5.4,1.1,11.7,5.5,15.8A40.1,40.1,0,0,0,235,309"/>
              <path class="cls-1" d="M248.9,244.1c-5.7,1.8-11.8-1-17.2-3.7l-4.3-2.2,10.1,9.1c-6.1-3.2-11.3-8-16.3-12.7-2-1.8-4-3.9-4.4-6.5"/>
              <path class="cls-1" d="M267.8,425.1a138.4,138.4,0,0,1-30.4-1.1,23.4,23.4,0,0,1-6.5-1.7,8.9,8.9,0,0,1-4.7-4.6"/>
              <path class="cls-1" d="M347.4,518.1c-2,2-2,5.5-4.4,7s-3.7.6-5.6.9-3.1,1.3-4.8,1.7a7.6,7.6,0,0,1-7.2-2.1,8,8,0,0,1-1.9-7.3"/>
              <path class="cls-1" d="M407,538.6a20.5,20.5,0,0,1-7.4,6.8,25.6,25.6,0,0,1-8,2.6,8.2,8.2,0,0,1-3.6,0,3.3,3.3,0,0,1-2.4-2.4"/>
              <path class="cls-1" d="M441.6,536.9h-.9a4.4,4.4,0,0,1-1,2.3,16.2,16.2,0,0,1,7.5.3,11.1,11.1,0,0,0,2.9.4,10.5,10.5,0,0,0,5-2.2"/>
              <path class="cls-1" d="M374.5,365.1c-2.2-.3-4.2,1.6-5.3,3.5a14.6,14.6,0,0,1-2.2,3.3,3.3,3.3,0,0,1-3.6.8"/>
              <path class="cls-1" d="M369.8,318.4a3,3,0,0,0-3.1,1,2.2,2.2,0,0,0-.6,1.7,1.1,1.1,0,0,0,1.4,1"/>
              <path class="cls-1" d="M274.7,308.8"/>
              <path class="cls-1" d="M274.5,366a114.8,114.8,0,0,0,18.3,4.3,114.8,114.8,0,0,0,13.4.6"/>
              <path class="cls-1" d="M442.9,404.5a23.1,23.1,0,0,0,.6,6.8,6,6,0,0,1,.3,1.9q.3-1.7-.7.4a16.1,16.1,0,0,0-3.8,11.9c.4,4.4,2.9,8.2,5.8,11.5a31.8,31.8,0,0,0,4.4,4.1c.3.2,5,4.1,4.1,2.5l-1.3-4.7v1l1.3-4.7-.4.9h15.9c-.8-1.7-.6-4.1-1.7-6a13.4,13.4,0,0,0-2.3-2.9c-.5-.5-3.6-2.4-2-1.1s.5,1,0-.6l-.3-1.4a24.9,24.9,0,0,0-1.3-3.5c-1-2.1-2.4-3.6-3.7-5.6s-1.4-7.3-1.7-11c-.4-5.5-1.6-11.7-7-14.3s-10-1.2-12.6,3.3-1.2,10.5,3.3,12.6l1,.5-3.3-3.3c1.4,2.7.4,8,.8,11.1.7,5.5,2.9,8.9,5.8,13.4,1.8,2.8,1.9,6.3,3.9,9.1a8,8,0,0,0,2.5,2.7q3.4,2.8.7.2a26,26,0,0,0,2,6.2c2.8,5.9,13.2,6.2,15.9,0s2.2-10-1.6-14c-1.6-1.7-3.8-2.7-5.7-4s-3-3.6-3.9-3.8,1.1-1.2-.4.5-.1,1.4.4.5l.8-1.2a21.2,21.2,0,0,0,2.9-5.8c1.3-4.6-.6-8.6-.3-13.2s-4.5-9.2-9.2-9.2-8.9,4.2-9.2,9.2Z"/>
              <path class="cls-1" d="M364.1,363.8h-.2l4.7-1.3h-.2l4.7,1.3h-.1l1.9,1.4-.3-.3,1.4,1.9a13.4,13.4,0,0,0-4-4.2c-3.3-2-6.7-1.7-10-.1a21,21,0,0,0-6.1,4.6c-3.3,3.5-3.7,9.6,0,13.1s9.5,3.7,13.1,0l1.6-1.5-1.9,1.4a12.5,12.5,0,0,1,2.6-1.6l-4.7,1.3h.4l-4.7-1.3.4.2-1.9-1.4.2.2-1.4-1.9c1.2,1.6,2.2,3.2,4,4.3a10,10,0,0,0,9.8,0,9.2,9.2,0,0,0,3.3-12.6,9.5,9.5,0,0,0-12.6-3.3Z"/>
              <path class="cls-1" d="M373.9,307.5c-4-.2-8.7.1-11.6,3.2a12.3,12.3,0,0,0-2.6,4.5l-.2.5q-.5,1.4.4-.7l-.3.5q-.6,1,.1,0t0-.1.6-.4c-2,1.5-3.5,3-4.2,5.5a9.4,9.4,0,0,0,.9,7.1,9.3,9.3,0,0,0,5.5,4.2c2.2.5,5.2.5,7.1-.9a21.2,21.2,0,0,0,5.4-5.5,12.9,12.9,0,0,0,.9-1.7q.6-1.3,1.1-2.7t-.4.7l-3.3,3.3a6.6,6.6,0,0,1-2.9.8h3.3c4.8.2,9.5-4.4,9.2-9.2a9.4,9.4,0,0,0-9.2-9.2Z"/>
              <path class="cls-1" d="M233.7,302.7c-1.7.4-3.7-1-5.1-1.8l-8.7-4.5c-4.2-2.3-6.4-8-8.9-12-6.3-10.1-22.3-.8-15.9,9.3,4.8,7.7,8.5,15,16.9,19.4s16.7,9.5,26.7,7.4c11.6-2.5,6.7-20.3-4.9-17.8Z"/>
              <path class="cls-1" d="M175.1,343.2c-.3,13.2,9.8,21.7,20.4,27.6,5.6,3.1,10.7,3.8,17,4.4l20.6,2c5,.5,9.2-4.6,9.2-9.2s-4.2-8.8-9.2-9.2l-15-1.4c-3.5-.3-7.8,0-11.1-1.3-5-1.8-13.5-6.7-13.4-12.8.2-11.9-18.2-11.9-18.5,0Z"/>
              <path class="cls-1" d="M263.7,415.7c-2.1.6-5.3,0-7.7,0H245.5c-2.6,0-5.1.1-7.5-1s-5.2-3.3-7.7-4.9c-10-6.5-19.2,9.4-9.3,15.9,7.4,4.9,13.4,8.3,22.6,8.5s17.4,1.5,25-.5c11.5-3,6.6-20.8-4.9-17.8Z"/>
              <path class="cls-1" d="M199.8,229.3c3.6,8.6,13,14.7,20.5,19.8s18.3,8.6,28.8,10c5,.6,9.2-4.7,9.2-9.2s-4.3-8.6-9.2-9.2a43.1,43.1,0,0,1-19.5-7.5c-5.1-3.5-11.4-7.4-13.8-13.2s-8.7-5.6-12.6-3.3-5.3,8-3.3,12.6Z"/>
              <path class="cls-1" d="M309.8,514.5c-.8,4.3-1.2,8.9,1.1,12.8s6.2,5.6,10.3,7,7.8,2.6,11.8,2.7,9.3-2,13.4-4.5c10.2-6.1.9-22.1-9.3-15.9-2.2,1.3-3.2,2.1-5.6,1.5s-5.3-1.2-7.3-2.5l3.3,3.3c-.2-.3,0,.6.1.5.9-4.9-1.3-10-6.5-11.4s-10.5,1.5-11.4,6.5Z"/>
              <path class="cls-1" d="M372.2,547.5c2.1,8.6,10.3,12.3,18.5,10.8,6.5-1.2,15.5-3.6,16.8-11.2.8-4.9-1.3-9.9-6.5-11.4s-10.5,1.5-11.4,6.5q5.8-4.6,2.7-3.5l-1.6.5-2.7.8-1.5.4c.6.9,3,.4,3.5,2.3-1.2-4.8-6.6-7.7-11.4-6.5a9.4,9.4,0,0,0-6.5,11.4Z"/>
              <path class="cls-1" d="M443.6,540.5a6.9,6.9,0,0,1,3.7-7.9c.6-.3,2.8-.2,1.4-.5l-3.2-.3A10.8,10.8,0,0,0,439,534a8.3,8.3,0,0,0-2.5,2.8c-.4.8-2,4.8-.2.8l5.5-4.2h-.2c-4.6,1.3-8,6.6-6.5,11.4a9.4,9.4,0,0,0,17.1,2.2l1-2.4q.3-1.3-.7,1.4l-5.5,4.2q-2.4.2-.7.2h.7l1.9.2a13.8,13.8,0,0,0,7.1-1.7,11.8,11.8,0,0,0,5.6-13.3c-1.3-4.6-6.6-8-11.4-6.5a9.4,9.4,0,0,0-6.5,11.4Z"/>
            </g>
            <circle class="cls-3" cx="598.6" cy="386.9" r="43.1"/>
          </g>
        </g>
        <g>
          <path class="cls-3" d="M148.3,1582.6H101.6v-8.9H205v8.9H158.3v120.2h-10Z"/>
          <path class="cls-3" d="M192.1,1657.2c0-27.3,20.7-47.1,46.4-47.1s48.6,15.7,45.1,51.3H201.4c1.8,21.4,18.3,33.8,37.1,33.8,12,0,26-4.8,32.9-13.9l6.5,5.2c-8.9,11.6-24.7,17.5-39.3,17.5C212.8,1704.1,192.1,1686.2,192.1,1657.2Zm83.3-3.7c-.2-22.5-15-35.1-36.9-35.1-18.8,0-35.1,12.7-37.1,35.1Z"/>
          <path class="cls-3" d="M381.8,1690.1a46.7,46.7,0,0,1-33.2,13.7c-25.7,0-46.9-17.7-46.9-46.5s20.5-46.5,46.9-46.5a47.5,47.5,0,0,1,33.2,13.7l-5.9,5.7a38.7,38.7,0,0,0-27.3-10.9c-20.7,0-38,13.5-38,38s17.4,38,38,38a38.6,38.6,0,0,0,27.1-11.3Z"/>
          <path class="cls-3" d="M408.9,1573.6v55c7.4-13.1,20.1-18.1,32.9-18.3,25.5,0,38.2,16.4,38.2,40.3v52.3h-8.9v-52.3c0-18.8-8.9-31.6-29.4-31.6s-32.5,14.8-32.5,33.8v50.1h-9V1573.6Z"/>
          <path class="cls-1" d="M542.1,1582.6H495.4v-8.9H598.8v8.9H552.1v120.2h-10Z"/>
          <path class="cls-1" d="M680.6,1611.6v91.2h-9v-19.4c-8.9,14.2-22.5,20.9-37.3,20.9-25.5,0-46.4-19.2-46.4-47.1s20.9-46.7,46.4-46.7c14.8,0,29.7,6.8,37.3,21.1v-19.9ZM597,1657.2c0,22.9,16.6,38.2,37.3,38.2,50.8,0,50.8-76.3,0-76.3C613.6,1619.2,597,1634.3,597,1657.2Z"/>
          <path class="cls-1" d="M722.2,1584.1v27.5h31v7.6h-31v55.6c0,12.4,2.6,21.1,16.8,21.1,4.4,0,9.4-1.5,14-3.7l3.1,7.4c-5.7,2.8-11.5,4.6-17.2,4.6-19.4,0-25.7-11.5-25.7-29.4v-55.6H693.9v-7.6h19.4V1585Z"/>
          <path class="cls-1" d="M765.4,1611.6h10l33.2,80.7,33.2-80.7h10l-38.2,91.2h-10Z"/>
          <path class="cls-1" d="M954.5,1611.6v91.2h-9.1v-19.4c-8.9,14.2-22.5,20.9-37.3,20.9-25.5,0-46.4-19.2-46.4-47.1s20.9-46.7,46.4-46.7c14.8,0,29.7,6.8,37.3,21.1v-19.9Zm-83.7,45.6c0,22.9,16.6,38.2,37.3,38.2,50.8,0,50.8-76.3,0-76.3C887.5,1619.2,870.9,1634.3,870.9,1657.2Z"/>
          <path class="cls-3" d="M1047.6,1573l-9.6,34.7h-10.5l12-34.7Z"/>
          <path class="cls-3" d="M1058.3,1694.2h21.8V1582.4h-21.8v-8.9h31.8v120.6h21.8v8.7h-53.6Z"/>
          <path class="cls-3" d="M1207.8,1582.8h-83.9v-9.2h94.2l1.3,8.1-70.2,121.2h-11.3Z"/>
          <path class="cls-1" d="M153.8,1790.7v32.1H148v-71.1h23.7q11.4,0,17.5,5t6.1,14.6a16.8,16.8,0,0,1-3.2,10.1,18.4,18.4,0,0,1-9.2,6.5q6.6,1.7,9.5,5.9a18.7,18.7,0,0,1,2.9,10.7v6.7a21,21,0,0,0,.8,6,9.3,9.3,0,0,0,2.6,4.3v1.2h-6a9.8,9.8,0,0,1-2.5-4.9,29.2,29.2,0,0,1-.7-6.6v-6.5q0-6.5-4.2-10.3t-11.8-3.8Zm0-5H171q9.6,0,14.1-3.9a13.2,13.2,0,0,0,4.4-10.5q0-7-4.4-10.8t-13.4-3.8H153.8Z"/>
          <path class="cls-1" d="M252.6,1823.9a21.2,21.2,0,0,1-16.7-7.3q-6.4-7.3-6.4-18.6v-2.7q0-11.4,6.5-18.9a20.4,20.4,0,0,1,16-7.4q9.6,0,14.9,6.2t5.3,16.6v4.5H235.4v1.6q0,9,4.6,15t12.6,6a24.2,24.2,0,0,0,8.9-1.6,19.4,19.4,0,0,0,6.7-4.3l2.5,4a21.6,21.6,0,0,1-7.3,4.9A27.5,27.5,0,0,1,252.6,1823.9ZM252,1774a14.2,14.2,0,0,0-11.1,4.8,20.8,20.8,0,0,0-5.1,12.3v.3h30.3v-1.2a17.9,17.9,0,0,0-3.7-11.6Q258.9,1774,252,1774Z"/>
          <path class="cls-1" d="M338,1822.9q-.5-2.8-.8-4.8a30.7,30.7,0,0,1-.3-4.1,21.4,21.4,0,0,1-7.7,7.1,22.5,22.5,0,0,1-11.3,2.8q-7.8,0-12-4.1t-4.3-11.2q0-7.1,6.2-11.5t16.1-4.4h13v-6.5a11.3,11.3,0,0,0-3.6-8.9q-3.6-3.2-10.1-3.2t-9.7,2.9a9,9,0,0,0-3.7,7.4h-5.4v-.3q-.3-6,5.1-10.5t14.1-4.5q8.7,0,14,4.4t5.3,12.7v26a45.3,45.3,0,0,0,.3,5.4,34.2,34.2,0,0,0,1.1,5.2Zm-19.4-4.2a21,21,0,0,0,11.7-3.2,16,16,0,0,0,6.7-8.2v-10.1h-13q-7.1,0-11.8,3.4t-4.6,8.2a9.4,9.4,0,0,0,3,7.2Q313.3,1818.7,318.5,1818.7Z"/>
          <path class="cls-1" d="M385.3,1822.9h-5.8v-76.2h5.8Z"/>
          <path class="cls-1" d="M428.6,1754.9h-5.8v-8.2h5.8Zm0,68h-5.8V1770h5.8Z"/>
          <path class="cls-1" d="M496.9,1809.4a8.5,8.5,0,0,0-3.1-6.5q-3.1-2.8-11-4.5t-13.9-5.3a11.2,11.2,0,0,1-4.6-9.5,12.8,12.8,0,0,1,5.1-10.3q5.1-4.2,13.5-4.2t14.1,4.5a13.2,13.2,0,0,1,5,11v.3h-5.4a9.7,9.7,0,0,0-3.7-7.6q-3.7-3.2-9.9-3.2t-9.6,2.8a8.4,8.4,0,0,0-3.2,6.5,7.5,7.5,0,0,0,2.8,6q2.8,2.4,11,4.2t14,5.7a11.8,11.8,0,0,1,4.8,9.9,12.9,12.9,0,0,1-5.3,10.7q-5.3,4.1-14.1,4.1t-15.1-4.6q-5.5-4.6-5.2-10.9v-.3h5.4q.3,5.7,4.7,8.3a19.4,19.4,0,0,0,10.2,2.6q6.4,0,10-2.8A8.4,8.4,0,0,0,496.9,1809.4Z"/>
          <path class="cls-1" d="M543.2,1754.9h-5.8v-8.2h5.8Zm0,68h-5.8V1770h5.8Z"/>
          <path class="cls-1" d="M585.1,1770l.5,9.2a19.3,19.3,0,0,1,6.9-7.5,19,19,0,0,1,10.2-2.7q8.6,0,13.1,5.3t4.5,16.4v32.2h-5.9v-32.1q0-9.1-3.4-12.8t-9.6-3.8q-6.3,0-10.1,3.1a17.2,17.2,0,0,0-5.5,8.3v37.4h-5.9V1770Z"/>
          <path class="cls-1" d="M654,1796.9q0-12.7,5.3-20.2a17.2,17.2,0,0,1,14.9-7.6,19.1,19.1,0,0,1,9.8,2.4,19.3,19.3,0,0,1,6.8,6.9l.8-8.3h4.7v53.1q0,10.1-5.6,15.6t-15.8,5.5a38.9,38.9,0,0,1-8.1-.9,31.8,31.8,0,0,1-7.5-2.5l1.1-4.9a30.3,30.3,0,0,0,6.8,2.4,35.1,35.1,0,0,0,7.7.8q7.8,0,11.7-4t3.9-11.8v-7.5a18.2,18.2,0,0,1-6.8,6.1,20.6,20.6,0,0,1-9.6,2.1q-9.5,0-14.8-7.1t-5.3-18.9Zm5.9,1q0,9.6,3.9,15.2t11.6,5.7a16.5,16.5,0,0,0,9.4-2.5,16.8,16.8,0,0,0,5.9-6.9v-25.2a18.5,18.5,0,0,0-5.7-7.3,15.2,15.2,0,0,0-9.5-2.8,12.8,12.8,0,0,0-11.6,6.4q-3.9,6.4-3.9,16.4Z"/>
          <path class="cls-3" d="M817.1,1789.6H784.4v33.3h-5.9v-71.1h43.5v5H784.4v27.8h32.7Z"/>
          <path class="cls-3" d="M859.3,1754.9h-5.8v-8.2h5.8Zm0,68h-5.8V1770h5.8Z"/>
          <path class="cls-3" d="M915.3,1819a15.9,15.9,0,0,0,9.9-3.3,11,11,0,0,0,4.3-9.2h5.2v.3a14.8,14.8,0,0,1-5.8,12.3,21,21,0,0,1-13.8,4.9q-10.6,0-16.4-7.4t-5.9-19v-2.1q0-11.5,5.9-19t16.4-7.4a20.3,20.3,0,0,1,14.2,5.1q5.7,5.1,5.5,13.5v.3h-5.2a13.1,13.1,0,0,0-4.2-10.1,14.5,14.5,0,0,0-10.2-3.8q-8.3,0-12.4,6.1t-4.1,15.3v2.1q0,9.3,4.1,15.4T915.3,1819Z"/>
          <path class="cls-3" d="M977.1,1756.5V1770h11.6v4.8H977.1v34.4q0,5.2,1.9,7.4a6.3,6.3,0,0,0,5,2.2h2.1l2.4-.4.9,4.3a12.2,12.2,0,0,1-2.9,1,16.6,16.6,0,0,1-3.4.4q-5.6,0-8.7-3.5t-3.1-11.1v-34.4h-9.1V1770h9.1v-13.5Z"/>
          <path class="cls-3" d="M1027.2,1754.9h-5.8v-8.2h5.8Zm0,68h-5.8V1770h5.8Z"/>
          <path class="cls-3" d="M1060.6,1795.7q0-11.7,6.4-19.1t17-7.5q10.6,0,17,7.5t6.4,19.1v1.6q0,11.7-6.4,19.2t-16.9,7.4q-10.7,0-17-7.4t-6.4-19.2Zm5.9,1.6q0,9.2,4.6,15.4t12.9,6.3a15.1,15.1,0,0,0,12.8-6.3q4.7-6.3,4.7-15.4v-1.6a25,25,0,0,0-4.7-15.3,16.3,16.3,0,0,0-25.7,0,25.1,25.1,0,0,0-4.6,15.3Z"/>
          <path class="cls-3" d="M1145.3,1770l.5,9.2a19.3,19.3,0,0,1,6.9-7.5,19,19,0,0,1,10.2-2.7q8.6,0,13.1,5.3t4.5,16.4v32.2h-5.9v-32.1q0-9.1-3.4-12.8t-9.6-3.8q-6.3,0-10.1,3.1a17.2,17.2,0,0,0-5.5,8.3v37.4h-5.9V1770Z"/>
        </g>
      </g>
    </g>
  </g>
</svg>
